# xmcd
#
# Track frame offsets:
#	150
#	12677
#	24332
#	40630
#	52890
#	67007
#	83927
#	96500
#	109945
#	123290
#	134715
#	153195
#
# Disc length: 2232 seconds
#
# Revision: 0
# Processed by: cddbd v1.5.2PL0 Copyright (c) Steve Scherf et al.
# Submitted via: audiograbber 1.83.01
#
DISCID=9f08b60c
DTITLE=Die Trixis - Die schönsten Weihnachtslieder mit den Trixis
DYEAR=1900
DGENRE=Christmas
TTITLE0=Fröhliche Weihnacht´ überall /Laßt uns froh und munter sein
TTITLE1=Alle Jahre wieder - Ihr Kinderlein kommet
TTITLE2=O Tannenbaum - Am Weihnachtsbaum die Lichter brennen
TTITLE3=Morgen Kinder wird´s was geben - Schneeflöckchen, Weißröckchen
TTITLE4=Still, still, still - In dulci jubilo
TTITLE5=O du fröhliche, O du selige
TTITLE6=Wenn´s Weihnachten ist (eine Muh, eine Mäh..)
TTITLE7=Kling Glöckchen kling - Jingle Bells
TTITLE8=Stille Nacht, heilige Nacht
TTITLE9=Leise rieselt der Schnee
TTITLE10=Süßer die Glocken nie klingen
TTITLE11=Weiße Weihnacht (White Christmas)
EXTD=
EXTT0=
EXTT1=
EXTT2=
EXTT3=
EXTT4=
EXTT5=
EXTT6=
EXTT7=
EXTT8=
EXTT9=
EXTT10=
EXTT11=
PLAYORDER=
